<svg xmlns="http://www.w3.org/2000/svg" viewBox="0 0 130.01 113.41"><title>Asset 14</title><g id="Layer_2" data-name="Layer 2"><g id="Layer_5" data-name="Layer 5"><path d="M96.85,113.41S97.66,91.32,87,79.87C70.19,61.76,36.28,75.8,29.73,73.35S-8.74,36.55,2.3,37s21.29,22.9,27.84,25.36S78.83,61.87,65.73,57,37.49,42.66,39.94,36.12,38.7,9.52,43.2,7.47s8.19,18,10.24,22.5,19.24,18.4,23.74,16.36-1.64-15.55-8.19-18-8.19-18-3.69-20a11.25,11.25,0,0,0,3.92-4c3.92-5.9,13.15-5.68,15.76.91,1,2.47.72,4.71-2.09,6C75.23,14.62,91.31,27,96.25,30.6a3.22,3.22,0,0,1,1.32,2.73l-.75,20.35,9.81-26.19c1.71-4.56,11-9.92,16.41-12.75a4.29,4.29,0,0,1,5.88,2h0a12.14,12.14,0,0,1-4,14.88c-3,2.17-7,5.18-12.19,9.32-16,12.69-2.42,66.28-2.42,66.28" style="fill:#66a722"/></g></g></svg>