<svg xmlns="http://www.w3.org/2000/svg" viewBox="0 0 56.03 102.92"><title>Asset 16</title><g id="Layer_2" data-name="Layer 2"><g id="Layer_5" data-name="Layer 5"><path d="M.57,90.51c-3.3-10.35,9-15.49,6.16-28.76-1.06-5-3.25-9.29-4.24-18.5a25.84,25.84,0,0,1,.13-6.15s.47-3.57,8.22-22.6c8.93,1.39,11.68,3.9,12.32,6.17,1,3.67-3.59,6.36-4.1,14.38-.17,2.54-.41,6.3,2.05,8.21a7.18,7.18,0,0,0,8.22,0c2.62-2,2.21-5.64,2.05-16.43-.23-15.57.46-18.2,2.06-20.54C35.9,2.65,40.8-.69,45.76.12,51.3,1,56,7,56,12.45c.14,8.9-11.84,10.71-14.38,22.6-1.28,6,1.54,6.63,2.06,16.43.7,13.16-3.76,23.4-6.17,28.76-5,11.24-9.67,21.58-18.48,22.6C11.67,103.7,2.89,97.82.57,90.51Z" style="fill:#b71306"/></g></g></svg>