<svg xmlns="http://www.w3.org/2000/svg" xmlns:xlink="http://www.w3.org/1999/xlink" viewBox="0 0 170.61 249.53"><defs><linearGradient id="linear-gradient" x1="591.8" y1="-126.93" x2="484.57" y2="14" gradientTransform="translate(-419.75 -82.12) rotate(28.26)" gradientUnits="userSpaceOnUse"><stop offset="0" stop-color="#ffaf55"/><stop offset="0.29" stop-color="#f5a340"/><stop offset="0.88" stop-color="#da830b"/><stop offset="1" stop-color="#d47c00"/></linearGradient></defs><title>Standing</title><g id="Layer_2" data-name="Layer 2"><g id="Layer_5" data-name="Layer 5"><path d="M169.94,76.57l-40.76,75.81C107,193.57,68.69,168.7,68.69,168.7L25.23,249.53,0,236,26.05,187.5s-40.39-7.05-20.25-55.41L41.56,62.47a5.65,5.65,0,0,1,7.63-2.3l15.3,8.23A5.65,5.65,0,0,1,66.79,76S44.4,112.86,28.63,144c-2.55,5-.37,16.56,9.86,20.34L125.27,3A5.65,5.65,0,0,1,132.9.67L148.2,8.9a5.65,5.65,0,0,1,2.3,7.63L81.19,145.44c9.11,9.69,22.76-6.62,22.76-6.62L144.71,63a5.65,5.65,0,0,1,7.63-2.29l15.31,8.23A5.64,5.64,0,0,1,169.94,76.57Z" style="fill:url(#linear-gradient)"/></g></g></svg>