<svg xmlns="http://www.w3.org/2000/svg" viewBox="0 0 1276 713.01"><title>sunlight</title><g id="Layer_2" data-name="Layer 2"><g id="Layer_4" data-name="Layer 4"><g style="opacity:0.1"><polygon points="382.32 0 0 179.71 0 345.6 533.19 0 382.32 0" style="fill:none"/><polygon points="759.3 0 279.83 713.01 451.73 713.01 808.08 0 759.3 0" style="fill:none"/><path d="M1029,0H992.19l154.5,713h2.71A127.07,127.07,0,0,0,1263,642.58Z" style="fill:none"/><path d="M630,0,.07,542.48,0,542v45.2c0,50.49,30.32,94.27,73.75,114.26L705.18,0Z" style="fill:none"/><polygon points="919.6 0 880.33 713.01 1013.14 713.01 957.28 0 919.6 0" style="fill:none"/><path d="M1276,125.82C1276,56.62,1219,0,1149.4,0h-79L1276,387.75Z" style="fill:none"/><path d="M72.94,11.94,105,1.85A125.92,125.92,0,0,0,72.94,11.94Z" style="fill:none"/><polygon points="846.56 0 606.18 713.01 746.2 713.01 883.72 0 846.56 0" style="fill:none"/><path d="M126.6,0A127,127,0,0,0,105,1.85L72.94,11.94C29.94,32.11,0,75.66,0,125.82v53.89L382.32,0Z"/><polygon points="630.01 0 533.19 0 0 345.6 0 541.98 0.07 542.48 630.01 0"/><path d="M705.18,0,73.75,701.44A126,126,0,0,0,126.6,713H279.83L759.3,0Z"/><polygon points="808.08 0 451.73 713.01 606.18 713.01 846.56 0 808.08 0"/><polygon points="883.72 0 746.2 713.01 880.33 713.01 919.6 0 883.72 0"/><polygon points="957.28 0 1013.14 713.01 1146.69 713.01 992.19 0 957.28 0"/><path d="M1276,587.18V387.75L1070.36,0H1029l234,642.58A124,124,0,0,0,1276,587.18Z"/></g></g></g></svg>