<svg xmlns="http://www.w3.org/2000/svg" viewBox="0 0 78.27 128.9"><title>Asset 15</title><g id="Layer_2" data-name="Layer 2"><g id="Layer_5" data-name="Layer 5"><path d="M23.7,92.4C14.22,83.88,5.85,79.75,1.82,68.09c-1.66-4.82-3.09-12.39,0-14.58,4.41-3.12,15,6.88,17,4.86,2.49-2.5-15.28-16.32-14.59-34C4.69,13.09,12.56.8,21.27,0,26.4-.41,32.56,3.09,33.42,7.33c.73,3.59-2.66,6.1-4.86,9.72-8.89,14.61,6.26,39.22,7.29,38.89.7-.22-5.51-12,0-19.44,2-2.7,5.9-5.28,9.72-4.86,7.14.76,9.94,11.48,19.45,36.45,11.61,30.52,15.35,35.31,12.15,43.76-3.37,8.89-12.87,17.72-21.88,17C43.57,127.93,45.3,111.82,23.7,92.4Z" style="fill:#0361af"/></g></g></svg>