<svg xmlns="http://www.w3.org/2000/svg" viewBox="0 0 357.26 125.11"><title>rock2</title><g id="Layer_2" data-name="Layer 2"><g id="Layer_5" data-name="Layer 5"><path d="M352.4,77.15c1.58-3.34,7.6-16,3.4-29.18C349.08,26.91,318.41,12,292,15.18c-29.54,3.55-36,27.65-57.6,22.85-5-1.1-4.49-2.34-40.23-17.37-5.31-2.24-12-4.95-16.67-1.95-5.34,3.42-2.49,10.7-6.12,16.19-8.49,12.87-49.23,11-79.2-9.24C73.75,13.19,64.39-2.85,57.13.43s-3.36,21.27-11.26,24c-6.77,2.38-13.79-9.4-20.35-6.6-5.87,2.5-6.09,14.35-6.12,16.19-.26,14,8.6,19.4,5.42,26C21.92,66,13.68,63.4,6.68,70.6S-.16,88.87.08,91C4.16,126.14,317.35,151.16,352.4,77.15Z" style="fill:#a5b098"/></g></g></svg>