<svg xmlns="http://www.w3.org/2000/svg" xmlns:xlink="http://www.w3.org/1999/xlink" viewBox="0 0 184.69 380.56"><defs><linearGradient id="linear-gradient" x1="-315.04" y1="380.13" x2="-252.39" y2="380.13" gradientTransform="translate(219.9 -249.57) rotate(-22.79)" gradientUnits="userSpaceOnUse"><stop offset="0" stop-color="#6d755c"/><stop offset="1" stop-color="#465038"/></linearGradient><linearGradient id="linear-gradient-2" x1="-361.42" y1="394.52" x2="-252.58" y2="394.52" xlink:href="#linear-gradient"/><linearGradient id="linear-gradient-3" x1="95.22" y1="211.19" x2="204.01" y2="165.49" gradientTransform="matrix(1, 0, 0, 1, 0, 0)" xlink:href="#linear-gradient"/></defs><title>Asset 13</title><g id="Layer_2" data-name="Layer 2"><g id="Layer_5" data-name="Layer 5"><path d="M160.35,366.83s15.89-55.72,4.93-66.3S72.7,229.87,67.92,200.42,38.36,112,43,89.42s2.6-32.55,2.6-32.55l129.85,239.4Z" style="fill:url(#linear-gradient)"/><path d="M155.52,380.56s7.6-41.71-7.24-53.37c-8.09-6.36-23.6-22.62-59.52-48.75-34.32-25-72.93-83.25-76.18-88.4S0,95.54,0,95.54s18.07,24.95,19.86,31.79,10.49,37.89,26.83,48.39S172.35,268.28,174.5,296.66,155.52,380.56,155.52,380.56Z" style="fill:url(#linear-gradient-2)"/><path d="M164.73,376.68s21.11-68.52,8.33-98.94-63.89-97.9-61.46-107.6S116.07,41.36,123,32,134.49,0,134.49,0s57,277.61,49.53,288.32S164.73,376.68,164.73,376.68Z" style="fill:url(#linear-gradient-3)"/></g></g></svg>