<svg xmlns="http://www.w3.org/2000/svg" xmlns:xlink="http://www.w3.org/1999/xlink" viewBox="0 0 81.39 178.54"><defs><linearGradient id="linear-gradient" x1="-371.79" y1="-845.12" x2="-440.53" y2="-754.77" gradientTransform="translate(644.31 752.32) rotate(-15.34)" gradientUnits="userSpaceOnUse"><stop offset="0" stop-color="#ffaf55"/><stop offset="0.29" stop-color="#f5a340"/><stop offset="0.88" stop-color="#da830b"/><stop offset="1" stop-color="#d47c00"/></linearGradient></defs><title>Standing2</title><g id="Layer_2" data-name="Layer 2"><g id="Layer_5" data-name="Layer 5"><polygon points="70.48 31.88 68.88 37.24 73.49 40.37 71.39 45.91 73.36 49.68 73.85 54.76 78.73 58.08 77.41 63.62 79.65 67.64 79.47 73.05 79.22 77.79 78.02 83.53 80.92 87 79.63 91.56 81.39 95.94 80.02 100.19 78.31 104.22 76.94 108.16 74.67 111.97 70.23 112.67 66.73 114.15 62.51 113.69 62.2 117.42 60.64 122.38 62.46 127.52 63.44 132.68 67.09 137.54 67.06 143.05 68.05 149.03 67.87 154.7 74.7 159.22 72.28 165.71 77.8 171.05 77.8 176.8 76.47 178.49 74.02 177.85 73.14 177.92 70.83 175.94 69.79 177.17 67.47 173.55 66.39 178.54 64.07 175.66 62.95 177.56 60.63 175.88 57.65 178.29 60.32 173.22 56.09 170.91 56.69 167.56 52.99 165.16 54.67 161.45 54.04 158.19 52.42 155.51 48.82 153.26 50.34 149.6 47.1 147.3 49.18 143.03 45.3 146.25 41.49 147.68 37.58 150.82 33.45 147.78 29.09 149.4 26.81 146.04 23.74 144.85 20.84 142.63 18.18 140.51 18.47 135.6 13.5 133.7 15.72 127.61 12.85 123.9 12.61 118.38 11.48 113.92 11.71 108.16 9.96 103.48 7.61 98.24 5.58 93.2 3.61 87.75 0.96 82.38 3.37 75.61 0 75.38 0.46 74.94 0.89 73.64 2.26 73.89 0.08 71.88 2.82 73.18 0.43 70.17 2.74 72.07 1.89 69.31 3.84 72.5 3.57 71.01 4.86 70.52 5.49 71.72 6.97 72.96 7.35 71.38 8.78 72.15 9.03 68.3 10.75 72.93 11.12 71.32 12.42 70.45 12.84 68.52 14.32 70.39 14.58 67.89 15.29 70.56 15.45 70.12 16.37 70.67 17.05 70.03 16.09 72.62 19.02 70.3 17.71 72.39 19.38 72.12 19.53 72.78 17.68 74.23 17.77 79.22 20.42 83.93 20.4 88.93 24.45 93.01 23.8 98.13 26.65 102.22 27.57 106.94 28.1 111.36 27.12 116.52 31.95 119.63 32.33 124.36 34.1 124.19 30.86 128.63 33.45 127.9 33.54 130.73 36.69 127.01 36.81 131.47 38.89 126.86 40.18 131.5 41.42 128.55 42.65 128.3 45.1 128.19 40.67 118.55 38.37 108.64 38.42 97.8 31.66 88.61 32.12 77.25 24.53 67.43 23.27 55.95 17.55 44.24 17.74 31.36 9.63 18.59 8.19 5.05 6.54 3.35 8.09 4.26 3.26 2.23 6.05 3.29 5 1.03 7.93 3.55 5.93 0.42 7.95 1.94 7.14 0 9.03 2.16 8.34 1.17 10.83 2.59 10.43 2.89 12.46 5.43 13.43 2.18 14.94 6.03 15.1 5.15 17.41 6.62 17.74 5.33 19.91 7 20.5 4.94 22.38 7.47 22.14 6.54 24.22 5.83 23.21 7.97 24.39 8.19 26.01 6.94 24.94 9.34 26.59 9.08 26.39 9.51 29.36 9.16 25.78 11.07 30.48 10.77 29.01 20.61 35.16 29.08 35.69 37.79 42.24 45.36 39.73 54.73 46.96 61.56 45.24 70.49 48.95 77.99 50 86.09 53.06 93.66 52.78 102.55 56.34 98.73 59.2 103.06 57.83 98.24 59.96 98.62 60.56 97.37 61.49 96.16 61.55 94.69 64.41 93.62 63.57 91.95 62.73 90.26 62.37 88.98 61.64 84.17 61.23 79.47 62.24 74.28 55.87 71.12 59.54 65.27 57.04 61.11 53.96 57.06 53.31 52.35 52.55 47.72 48.33 43.87 50.34 38.46 49.28 38.05 49.77 37.61 49.34 37.11 49.17 36.29 50.78 36.89 51.91 36.99 50 34.94 51.32 35.17 50.53 32.95 53.09 37.12 52.04 31.77 54.02 34.88 55.18 35.02 55.85 32.65 57.26 33.42 58.93 34.91 58.79 30.07 61.03 33.45 61.84 31.72 62.73 30.88 63.98 30.34 65.52 31.36 65.58 28.41 66.29 30.01 67.44 29.92 67.33 31.54 69.05 28.24 68.72 29.88 69.11 31.5 67.57 33.06 72.39 29.51 67.63 32.96 70.48 31.88" style="fill:url(#linear-gradient)"/></g></g></svg>