<svg xmlns="http://www.w3.org/2000/svg" xmlns:xlink="http://www.w3.org/1999/xlink" viewBox="0 0 213.08 120.58"><defs><linearGradient id="linear-gradient" x1="301.79" y1="21.84" x2="280.2" y2="100.85" gradientTransform="translate(-194.63 -58.86) rotate(14.35)" gradientUnits="userSpaceOnUse"><stop offset="0" stop-color="#15adff"/><stop offset="1" stop-color="#85d2ff"/></linearGradient><linearGradient id="linear-gradient-2" x1="385.59" y1="-23.12" x2="410.26" y2="-119.48" xlink:href="#linear-gradient"/><linearGradient id="linear-gradient-3" x1="307.42" y1="92.83" x2="305.6" y2="99.49" gradientTransform="translate(-194.63 -58.86) rotate(14.35)" gradientUnits="userSpaceOnUse"><stop offset="0" stop-color="#15adff"/><stop offset="1" stop-color="#54c6ff"/></linearGradient></defs><title>fish</title><g id="Layer_2" data-name="Layer 2"><g id="Layer_5" data-name="Layer 5"><path d="M146.07,70.5c-6.29,12.92-70.56,44.72-70.56,44.72s-45.09,23.63-69-28.35Q5.21,84,4,80.86C-19.07,21.1,70.1,35.07,70.1,35.07c89.4,23.08,96.29-6.78,104.24-4.24a1.69,1.69,0,0,1,1.3,1.36C176.61,38,151.73,58.86,146.07,70.5Z" style="fill:url(#linear-gradient)"/><path d="M37,40.4s-13.74,1.94-18,6.31-5.15,4.91-5.15,4.91" style="fill:none;stroke:#79e8ff;stroke-linecap:round;stroke-miterlimit:10;stroke-width:10px"/><circle cx="28.55" cy="68.04" r="5.47" style="fill:#fff;stroke:#4f4f4f;stroke-miterlimit:10"/><ellipse cx="27.05" cy="67.07" rx="4.53" ry="3.4" transform="translate(-44.64 76.65) rotate(-75.65)" style="fill:#2d617a"/><circle cx="26.05" cy="64.87" r="0.75" style="fill:#fafeff"/><circle cx="14.5" cy="59" r="5.47" style="fill:#fff;stroke:#4f4f4f;stroke-miterlimit:10"/><ellipse cx="13" cy="58.03" rx="4.53" ry="3.4" transform="translate(-46.44 56.24) rotate(-75.65)" style="fill:#2d617a"/><circle cx="12.19" cy="55.09" r="0.75" style="fill:#fafeff"/><path d="M158.93.44a6.35,6.35,0,0,0-8.15,8.25c2.71,7.07,8.52,17.46,20.31,23.27,11.61,5.73,26,7.11,35.5,7.32,8,.17,8.92-11.9.94-12.66l-.7,0c-7-.21-17.44-1.28-22.61-1.85a6.36,6.36,0,0,1-4.69-2.94c-3-4.83-10-15.11-16.87-19.45A21.58,21.58,0,0,0,158.93.44Z" style="fill:url(#linear-gradient-2)"/><path d="M145.87,70.64c-6.3,12.91-70.63,44.62-70.63,44.62S26.76,140.58,3.78,80.79C.77,73-.31,66.38.08,60.89,15.85,115.87,64,99.31,64,99.31s68.33-21.74,76.5-33.55c7.35-10.66,35.08-27.49,35-33.42C176.54,38.15,151.56,59,145.87,70.64Z" style="opacity:0.30000000000000004"/><path d="M65.54,108.47s24.11,9.28,23.94,6.9c-.58-8.1-6.53-11-6.53-11" style="fill:url(#linear-gradient-3)"/></g></g></svg>