<svg xmlns="http://www.w3.org/2000/svg" viewBox="0 0 69.16 60.33"><title>Asset 19</title><g id="Layer_2" data-name="Layer 2"><g id="Layer_5" data-name="Layer 5"><path d="M51.52,60.33S52,48.58,46.29,42.49c-8.95-9.63-27-2.16-30.47-3.47S-4.65,19.44,1.23,19.66,12.55,31.84,16,33.15s25.9-.24,18.94-2.84-15-7.61-13.72-11.1S20.59,5.07,23,4s4.36,9.57,5.45,12,10.23,9.79,12.63,8.7-.88-8.27-4.36-9.57-4.36-9.58-2-10.66a6,6,0,0,0,2.08-2.15c2.09-3.15,7-3,8.39.48.52,1.31.38,2.5-1.11,3.18C40,7.78,48.57,14.37,51.2,16.28a1.7,1.7,0,0,1,.7,1.45l-.39,10.83,5.21-13.94c.91-2.42,5.83-5.27,8.73-6.78a2.29,2.29,0,0,1,3.13,1.09h0a6.46,6.46,0,0,1-2.1,7.92C64.88,18,62.76,19.6,60,21.8c-8.48,6.76-1.29,35.26-1.29,35.26" style="fill:#66a722"/></g></g></svg>