<svg xmlns="http://www.w3.org/2000/svg" xmlns:xlink="http://www.w3.org/1999/xlink" viewBox="0 0 120.64 116.94"><defs><linearGradient id="linear-gradient" x1="464.9" y1="-64.5" x2="391.58" y2="28.58" gradientTransform="translate(-339.88 -103.76) rotate(24.13)" gradientUnits="userSpaceOnUse"><stop offset="0" stop-color="#ce5db1"/><stop offset="0.3" stop-color="#c6529c"/><stop offset="0.93" stop-color="#b23667"/><stop offset="1" stop-color="#af3361"/></linearGradient></defs><title>Asset 20</title><g id="Layer_2" data-name="Layer 2"><g id="Layer_5" data-name="Layer 5"><path d="M112.62,71.49c1.93-4.31-6.5-8.08-4.58-12.38s10.36-.52,12.29-4.83c1.69-3.76-4-6.06-4.86-9.69-.67,1-1.25,1.69-1.57,1.55-1-.47,2.74-8.9,1.69-9.37s-4.82,8-5.86,7.5,2.74-8.9,1.69-9.37-4.82,8-5.86,7.5-3.15-8.87-3.85-8c-2.89,3.74,5.94,9,4,13.33s-10.37.53-12.3,4.83S99.94,60.66,98,65s-10.37.53-12.29,4.83C84,73.58,90.38,77,90.58,80.66a28.76,28.76,0,0,0-5.54-3c-.73-3.48-6.4-6.72-4.78-10.33,1.93-4.3,10.36-.52,12.28-4.82S86,54.41,88,50.11s10.35-.52,12.28-4.82c1.69-3.76-4-6.07-4.86-9.69-.67,1-1.25,1.69-1.57,1.54-1-.46,2.74-8.9,1.69-9.37s-4.82,8-5.86,7.5,2.74-8.89,1.69-9.36-4.82,8-5.86,7.5-3.15-8.88-3.84-8c-2.89,3.73,5.93,9,4,13.32s-10.36.53-12.29,4.84,6.5,8.08,4.58,12.37-10.36.53-12.29,4.83,6.5,8.09,4.58,12.39a3.36,3.36,0,0,1-.79,1.08,83.24,83.24,0,0,0-15.38.4c3.19-1.38,9.27-.77,10.7-4,1.93-4.29-6.51-8.07-4.58-12.37s10.36-.53,12.29-4.83S66,45.42,67.89,41.12s10.36-.52,12.29-4.83c1.68-3.76-4-6.06-4.87-9.69-.67,1-1.25,1.69-1.57,1.55-1-.47,2.74-8.9,1.69-9.37s-4.82,8-5.86,7.5,2.74-8.9,1.69-9.37-4.82,8-5.86,7.5-3.14-8.87-3.84-8a3,3,0,0,0-.21.33c-1-.12-3.89,1.2-4.86.77-1.22-.55.4-4.17-.82-4.71s-2.83,3.07-4.05,2.52.4-4.16-.81-4.7S48,13.71,46.75,13.16,44.38,8,43.57,9.05c-3.37,4.36,1.12,7.05-1.13,12.08s-5.86,3.4-8.11,8.42,1.36,6.63-.89,11.65-5.86,3.4-8.11,8.42S26.55,56.2,24.58,61l-5-3.65a3,3,0,0,0,.29-.53c1.36-3-2.26-4.64-.91-7.65s5-1.39,6.31-4.39-2.27-4.64-.92-7.65,5-1.39,6.32-4.4-2.27-4.63-.92-7.64,5-1.4,6.31-4.41S33.81,16,35.16,13,41,11.41,41.6,8.17c.15-.79-3.48,1.13-4.22.79s.89-3.94.16-4.26-2.35,3.28-3.08,3,.89-3.95.16-4.27-2.35,3.28-3.08,3,.89-3.94.16-4.27-2.35,3.29-3.08,3,.89-3.94.16-4.27-2.35,3.29-3.08,3S24-.57,23.49.07c-2,2.61,2,5,.67,8s-5,1.39-6.31,4.4,2.26,4.64.91,7.65-5,1.39-6.31,4.4,2.27,4.63.92,7.64-5,1.39-6.32,4.4,2.27,4.63.92,7.64-5,1.4-6.31,4.41c-.95,2.11.55,3.54,1.07,5.24h0a3.24,3.24,0,0,1-.15,2.39,3.28,3.28,0,0,1-1.4,1.53,21.52,21.52,0,0,0-.7,2.63c.28.48-.28,2.12-.44,3.2a.06.06,0,0,1,0,.06c0,.18,0,.36,0,.54,0,0,0,0,0,0a20.28,20.28,0,0,0,.08,2.52c3,32.39,67,62.44,88.3,45A26.56,26.56,0,0,0,95,103.7c.25-.49.5-1,.73-1.52-1.56-1.84-3.69-3.92-3.46-7.09.16-2.26,2.64-2.83,5.39-3.3,3-.49,6.29-.86,7.29-3.1,1.93-4.29-6.5-8.07-4.58-12.37S110.7,75.79,112.62,71.49ZM50.15,64.18c-1.93,4.3-10.36.52-12.29,4.83a3.22,3.22,0,0,0-.3,1.44L35,68.59a11.25,11.25,0,0,1,.3-2.06c1.29-5.35,6-3.75,8.24-8.76s-1.37-6.64.88-11.66,5.86-3.4,8.11-8.42A8.85,8.85,0,0,0,53,36.38c.5,3.59,6.49,6.89,4.83,10.59-1.93,4.31-10.36.53-12.29,4.83S52.08,59.88,50.15,64.18Zm3.17-29.65c.07-2.85-1.59-4.7.12-8.5,2-4.35,6-3.75,7.65-7.06.82,3.37,6,7.39,4.48,10.79C63.65,34,55.31,30.33,53.32,34.53Z" style="fill:url(#linear-gradient)"/></g></g></svg>