<svg xmlns="http://www.w3.org/2000/svg" xmlns:xlink="http://www.w3.org/1999/xlink" viewBox="0 0 158.15 165.48"><defs><linearGradient id="linear-gradient" x1="118" y1="64.91" x2="120.39" y2="-18.65" gradientTransform="translate(-3.96 4.85)" gradientUnits="userSpaceOnUse"><stop offset="0" stop-color="#c61029"/><stop offset="1" stop-color="#ca685b"/></linearGradient></defs><title>Asset 18</title><g id="Layer_2" data-name="Layer 2"><g id="Layer_5" data-name="Layer 5"><path d="M154.37,79.71c0,8.26-5.52,13.08-7.94,20.52-2.5,7.72,5.3,19.39.63,25.81s-15.89,5.92-22.38,10.65-13.61,2.25-21.33,4.75c-7.44,2.42-11.8,12.74-20.06,12.74s-20.32,13.43-27.77,11c-7.71-2.51-16.51-11-22.93-15.7s-12-14.31-16.71-20.79S2.72,114.42.22,106.71C-2.2,99.26,16.33,88,16.33,79.71s4.38-12.1,6.8-19.55c2.51-7.72.88-13.69,5.55-20.11s7.76-11.18,14.25-15.91S53.48,14.23,61.2,11.73C68.65,9.31,75,0,83.29,0s13.38,13.2,20.83,15.62c7.72,2.51,23.08-9.85,29.51-5.17S143.54,26,148.26,32.51s6.78,15.36,9.29,23.08C160,63,154.37,71.46,154.37,79.71Z" style="fill:#8b997b"/><path d="M130.32,52.61c-4.06-3.32-8.46-7-13.1-11.19a2.16,2.16,0,0,0-3.34.31,46,46,0,0,0-5.57,12.92c-.55,2.48-4.23.73-4.56-2.29a57.53,57.53,0,0,1,.43-13.64,3.53,3.53,0,0,0-1.67-3.43C97,32.14,91.34,28.61,85.45,24.64c-2.69-1.78-2.22-6.16.71-5.8q9.38,1.05,18.69,2a2.68,2.68,0,0,0,2.84-1.82,68.39,68.39,0,0,1,7.43-15.65c1.54-2.37,6-1.3,6,1.25a122.67,122.67,0,0,0,1.2,15.75,2.49,2.49,0,0,0,2.5,2q10,.43,20.1,1c2.81.18,2.9,2.58.31,3.57a83.52,83.52,0,0,0-15.13,7.59A2.29,2.29,0,0,0,129,37.05c1.27,4.38,2.72,8.62,4.32,12.7C134.1,51.81,132,54,130.32,52.61Z" style="fill:url(#linear-gradient)"/></g></g></svg>