<svg xmlns="http://www.w3.org/2000/svg" viewBox="0 0 1269.56 274.37"><title>Asset 28</title><g id="Layer_2" data-name="Layer 2"><g id="Layer_5" data-name="Layer 5"><path d="M1054.49,155.43c4.42,11.38,10.23,21.92,10.86,32.41.73,12-4.41,25.55-7.93,35.69-3.81,11-12.55,21.32-20.43,29.19s-20.62,9.66-31.61,13.48c-10.13,3.51-20.85,8.63-32.85,7.9-10.49-.63-21.45-.92-32.83-5.34-11.38,4.42-22.34,4.84-32.83,5.47A88.08,88.08,0,0,1,873,269.11c-11-3.81-24.89-6.34-32.77-14.22s-1.64-24.82-5.45-35.81C831.26,208.94,815.36,200,816.09,188c.63-10.49,16.33-21.15,20.74-32.53-4.41-11.38-20.17-22-20.81-32.54-.72-12,15.81-20.79,19.32-30.92,3.82-11-.86-26,7-33.88s19.14-14,30.13-17.83c10.13-3.52,22.52-6.68,34.52-6,10.49.64,21.31,4.68,32.69,9.1,11.38-4.42,22-11.57,32.5-12.21,12-.72,26.3.57,36.44,4.09,11,3.81,20.16,15.29,28,23.17s14.4,18.77,18.21,29.76c3.51,10.14,8,22.61,7.24,34.61C1061.5,133.31,1058.91,144.05,1054.49,155.43Z" style="fill:#5c6845"/><path d="M822.54,205.22c-10.21,7.74-21,15.7-31.2,17.26-12,1.83-27.44-4.15-37.12-9.53s-18.11-17.37-22.91-28.55c-4.08-9.51-.87-22.76.3-35.52-7.73-10.21-15.71-20-17.27-30.27-1.83-12-1.35-25.6,4-35.29S735,65.93,746.15,61.13c9.51-4.08,21.27-5.33,34-4.16,10.21-7.74,20.15-17.54,30.39-19.1,12-1.83,20.53,13.88,30.21,19.26s27.62,4.27,32.41,15.45c4.08,9.51-6.58,25.31-7.76,38.07,7.74,10.21,25.21,18,26.77,28.21,1.83,12-14.56,20.27-20,30s-5,25-16.15,29.83C846.59,202.74,835.3,206.4,822.54,205.22Z" style="fill:#6d7757"/><path d="M394.54,193.23c-10.21,7.74-21,15.69-31.19,17.25-12,1.84-27.44-4.14-37.13-9.53s-18.11-17.37-22.9-28.54c-4.08-9.52-.87-22.77.3-35.53-7.74-10.21-15.71-20-17.27-30.26-1.84-12-1.36-25.61,4-35.29S307,53.94,318.16,49.14c9.51-4.08,21.27-5.34,34-4.16,10.21-7.74,20.15-17.54,30.38-19.1,12-1.83,20.53,13.88,30.22,19.26s27.61,4.27,32.41,15.44c4.08,9.51-6.59,25.31-7.76,38.07,7.73,10.21,25.2,18,26.76,28.22,1.84,12-14.56,20.26-19.94,29.95s-5,25.05-16.15,29.84C418.6,190.74,407.3,194.41,394.54,193.23Z" style="fill:#6d7757"/><path d="M1225.49,124.43c4.42,11.38,10.23,21.92,10.86,32.41.73,12-4.41,25.55-7.93,35.69-3.81,11-12.55,21.32-20.43,29.19s-20.62,9.66-31.61,13.48c-10.13,3.51-20.85,8.63-32.85,7.9-10.49-.63-21.45-.92-32.83-5.34-11.38,4.42-22.34,4.84-32.83,5.47a88.08,88.08,0,0,1-33.87-5.12c-11-3.81-24.89-6.34-32.77-14.22s-1.64-24.82-5.45-35.81c-3.52-10.14-19.42-19.11-18.69-31.12.63-10.49,16.33-21.15,20.74-32.53-4.41-11.38-20.17-22-20.81-32.54-.72-12,15.81-20.79,19.32-30.92,3.82-11-.86-26,7-33.88s19.14-14,30.13-17.83c10.13-3.52,22.52-6.68,34.52-6,10.49.64,21.31,4.68,32.69,9.1C1122.08,8,1132.7.83,1143.2.19c12-.72,26.3.57,36.44,4.09,11,3.81,20.16,15.29,28,23.17s14.4,18.77,18.21,29.76c3.51,10.14,8,22.61,7.24,34.61C1232.5,102.31,1229.91,113.05,1225.49,124.43Z" style="fill:#4d563e"/><path d="M238.49,124.43c4.42,11.38,10.23,21.92,10.86,32.41.73,12-4.41,25.55-7.93,35.69-3.81,11-12.55,21.32-20.43,29.19s-20.62,9.66-31.61,13.48c-10.13,3.51-20.85,8.63-32.85,7.9-10.49-.63-21.45-.92-32.83-5.34-11.38,4.42-22.34,4.84-32.83,5.47A88.08,88.08,0,0,1,57,238.11c-11-3.81-24.89-6.34-32.77-14.22s-1.64-24.82-5.45-35.81C15.26,177.94-.64,169,.09,157c.63-10.49,16.33-21.15,20.74-32.53C16.42,113.05.66,102.39,0,91.89-.7,79.89,15.83,71.1,19.34,61c3.82-11-.86-26,7-33.88s19.14-14,30.13-17.83C66.62,5.74,79,2.58,91,3.3c10.49.64,21.31,4.68,32.69,9.1C135.08,8,145.7.83,156.2.19c12-.72,26.3.57,36.44,4.09,11,3.81,20.16,15.29,28,23.17s14.4,18.77,18.21,29.76c3.51,10.14,8,22.61,7.24,34.61C245.5,102.31,242.91,113.05,238.49,124.43Z" style="fill:#4d563e"/><path d="M721.77,116.43c0,8.25-5.52,13.07-7.93,20.51-2.51,7.72,5.3,19.39.62,25.82s-15.89,5.92-22.38,10.64-13.61,2.25-21.32,4.75c-7.45,2.42-11.81,12.74-20.06,12.74s-20.33,13.43-27.77,11c-7.72-2.51-16.51-11-22.94-15.7s-12-14.3-16.7-20.79-13.16-14.27-15.67-22c-2.42-7.45,16.12-18.74,16.12-27s4.37-12.11,6.79-19.56c2.51-7.71.88-13.69,5.56-20.11s7.75-11.18,14.24-15.9,10.56-9.92,18.28-12.42c7.44-2.42,13.83-11.73,22.09-11.73s13.38,13.21,20.83,15.62c7.71,2.51,23.08-9.85,29.5-5.17s9.91,15.57,14.64,22.06S722.45,84.58,725,92.3C727.37,99.75,721.77,108.17,721.77,116.43Z" style="fill:#8b997b"/><path d="M1265.77,103.43c0,8.25-5.52,13.07-7.93,20.51-2.51,7.72,5.3,19.39.62,25.82s-15.89,5.92-22.38,10.64-13.61,2.25-21.32,4.75c-7.45,2.42-11.81,12.74-20.06,12.74s-20.33,13.43-27.77,11c-7.72-2.51-16.51-11-22.94-15.7s-12-14.3-16.7-20.79-13.16-14.27-15.67-22c-2.42-7.45,16.12-18.74,16.12-27s4.37-12.11,6.79-19.56c2.51-7.71.88-13.69,5.56-20.11s7.75-11.18,14.24-15.9,10.56-9.92,18.28-12.42c7.44-2.42,13.83-11.73,22.09-11.73s13.38,13.21,20.83,15.62c7.71,2.51,23.08-9.85,29.5-5.17s9.91,15.57,14.64,22.06,6.78,15.36,9.28,23.08C1271.37,86.75,1265.77,95.17,1265.77,103.43Z" style="fill:#8b997b"/></g></g></svg>